<svg xmlns="http://www.w3.org/2000/svg" viewBox="0 0 128 128" role="img" aria-labelledby="faviconTitle faviconDesc">
  <title id="faviconTitle">Sakshu1347 Favicon</title>
  <desc id="faviconDesc">A premium dark square icon with an S monogram and thumbnail frame accent.</desc>
  <defs>
    <linearGradient id="bg" x1="0%" y1="0%" x2="100%" y2="100%">
      <stop offset="0%" stop-color="#141b24"/>
      <stop offset="100%" stop-color="#06090d"/>
    </linearGradient>
    <linearGradient id="accent" x1="0%" y1="0%" x2="100%" y2="100%">
      <stop offset="0%" stop-color="#b9ff66"/>
      <stop offset="100%" stop-color="#7dd8ff"/>
    </linearGradient>
  </defs>
  <rect x="8" y="8" width="112" height="112" rx="30" fill="url(#bg)"/>
  <rect x="20" y="20" width="88" height="88" rx="24" fill="none" stroke="#ffffff" stroke-opacity="0.12" stroke-width="3"/>
  <path d="M81.74 40.71c-4.63-5.16-10.69-7.74-18.19-7.74-5.78 0-10.78 1.3-14.99 3.89-4.22 2.6-6.33 6.17-6.33 10.73 0 4.52 1.82 7.93 5.46 10.23 2.69 1.69 7.44 3.28 14.24 4.77 5.37 1.17 8.9 2.22 10.6 3.14 2.08 1.11 3.12 2.77 3.12 4.96 0 2.04-.97 3.66-2.9 4.87-1.94 1.2-4.65 1.8-8.14 1.8-6.29 0-12.08-2.2-17.37-6.62l-9.66 10.92c7.48 6.34 16.24 9.51 26.28 9.51 6.58 0 12.07-1.24 16.46-3.71 5.6-3.16 8.4-7.95 8.4-14.39 0-5.07-1.89-8.86-5.67-11.37-2.84-1.87-7.95-3.53-15.31-4.99-5.18-1.03-8.47-1.97-9.88-2.8-1.4-.83-2.1-2.18-2.1-4.05 0-1.9.91-3.38 2.74-4.45 1.83-1.07 4.19-1.61 7.1-1.61 4.82 0 9.28 1.61 13.37 4.83l8.77-11.92Z" fill="url(#accent)"/>
  <rect x="74" y="26" width="24" height="14" rx="7" fill="#b9ff66" opacity="0.9"/>
</svg>
